<svg width="51" height="40" viewBox="0 0 51 40" fill="none" xmlns="http://www.w3.org/2000/svg">
<path d="M48.45 0H2.55C1.14172 0 0 1.14162 0 2.55V36.55C0 37.9582 1.14162 39.1 2.55 39.1H48.45C49.8583 39.1 51 37.9583 51 36.55V2.55C51 1.14172 49.8584 0 48.45 0ZM49.3 36.5501C49.3 37.0195 48.9195 37.4 48.45 37.4H2.55C2.08054 37.4 1.70003 37.0195 1.70003 36.5501V2.55C1.70003 2.08054 2.08054 1.70003 2.55 1.70003H48.45C48.9195 1.70003 49.3 2.08054 49.3 2.55V36.5501Z" fill="#2C742F"/>
<path d="M46.8239 3.40367C46.5993 3.38405 46.3761 3.45447 46.2035 3.5995L26.5939 20.0724C25.9614 20.604 25.0384 20.604 24.4059 20.0724L4.79654 3.5994C4.56395 3.40417 4.2448 3.34779 3.95942 3.45158C3.67404 3.55538 3.46566 3.8036 3.41286 4.10273C3.36007 4.40186 3.47084 4.70636 3.70342 4.9016L23.3129 21.3737C24.5768 22.4378 26.4231 22.4378 27.6871 21.3737L47.2965 4.9017C47.4692 4.75677 47.5772 4.54918 47.5968 4.32456C47.6164 4.09994 47.546 3.87672 47.401 3.70409C47.2561 3.53127 47.0485 3.4233 46.8239 3.40367Z" fill="#2C742F"/>
<path d="M16.3483 21.2558C16.0474 21.1886 15.7338 21.2896 15.5286 21.5197L3.62856 34.2697C3.41321 34.4903 3.33412 34.8102 3.42197 35.1057C3.50983 35.4012 3.75079 35.6259 4.05161 35.6931C4.35253 35.7602 4.6661 35.6592 4.87129 35.4291L16.7713 22.6791C16.9867 22.4586 17.0658 22.1386 16.9779 21.8432C16.8901 21.5477 16.6492 21.3229 16.3483 21.2558Z" fill="#2C742F"/>
<path d="M35.4714 21.5197C35.2663 21.2896 34.9526 21.1886 34.6517 21.2558C34.3508 21.3229 34.1099 21.5477 34.0221 21.8432C33.9342 22.1387 34.0133 22.4586 34.2287 22.6791L46.1287 35.4291C46.4514 35.7596 46.979 35.772 47.3167 35.4568C47.6545 35.1416 47.6788 34.6145 47.3714 34.2696L35.4714 21.5197Z" fill="#2C742F"/>
</svg>
