<svg width="20" height="20" viewBox="0 0 20 20" fill="none" xmlns="http://www.w3.org/2000/svg">
<path d="M5.83325 6.66667C4.9492 6.66667 4.10135 7.01786 3.47623 7.64298C2.85111 8.2681 2.49992 9.11594 2.49992 10C2.49992 10.8841 2.85111 11.7319 3.47623 12.357C4.10135 12.9821 4.9492 13.3333 5.83325 13.3333H7.49992C7.72093 13.3333 7.93289 13.4211 8.08917 13.5774C8.24545 13.7337 8.33325 13.9457 8.33325 14.1667C8.33325 14.3877 8.24545 14.5996 8.08917 14.7559C7.93289 14.9122 7.72093 15 7.49992 15H5.83325C4.50717 15 3.2354 14.4732 2.29772 13.5355C1.36004 12.5979 0.833252 11.3261 0.833252 10C0.833252 8.67392 1.36004 7.40215 2.29772 6.46447C3.2354 5.52678 4.50717 5 5.83325 5H7.49992C7.72093 5 7.93289 5.0878 8.08917 5.24408C8.24545 5.40036 8.33325 5.61232 8.33325 5.83333C8.33325 6.05435 8.24545 6.26631 8.08917 6.42259C7.93289 6.57887 7.72093 6.66667 7.49992 6.66667H5.83325ZM11.6666 5.83333C11.6666 5.61232 11.7544 5.40036 11.9107 5.24408C12.0669 5.0878 12.2789 5 12.4999 5H14.1666C15.4927 5 16.7644 5.52678 17.7021 6.46447C18.6398 7.40215 19.1666 8.67392 19.1666 10C19.1666 11.3261 18.6398 12.5979 17.7021 13.5355C16.7644 14.4732 15.4927 15 14.1666 15H12.4999C12.2789 15 12.0669 14.9122 11.9107 14.7559C11.7544 14.5996 11.6666 14.3877 11.6666 14.1667C11.6666 13.9457 11.7544 13.7337 11.9107 13.5774C12.0669 13.4211 12.2789 13.3333 12.4999 13.3333H14.1666C15.0506 13.3333 15.8985 12.9821 16.5236 12.357C17.1487 11.7319 17.4999 10.8841 17.4999 10C17.4999 9.11594 17.1487 8.2681 16.5236 7.64298C15.8985 7.01786 15.0506 6.66667 14.1666 6.66667H12.4999C12.2789 6.66667 12.0669 6.57887 11.9107 6.42259C11.7544 6.26631 11.6666 6.05435 11.6666 5.83333ZM5.83325 10C5.83325 9.77899 5.92105 9.56702 6.07733 9.41074C6.23361 9.25446 6.44557 9.16667 6.66658 9.16667H13.3333C13.5543 9.16667 13.7662 9.25446 13.9225 9.41074C14.0788 9.56702 14.1666 9.77899 14.1666 10C14.1666 10.221 14.0788 10.433 13.9225 10.5893C13.7662 10.7455 13.5543 10.8333 13.3333 10.8333H6.66658C6.44557 10.8333 6.23361 10.7455 6.07733 10.5893C5.92105 10.433 5.83325 10.221 5.83325 10Z" fill="#4D4D4D"/>
</svg>
